<?xml version="1.0" standalone="no"?>
<!DOCTYPE svg PUBLIC "-//W3C//DTD SVG 20010904//EN"
 "http://www.w3.org/TR/2001/REC-SVG-20010904/DTD/svg10.dtd">
<svg version="1.0" xmlns="http://www.w3.org/2000/svg"
 width="200.000000pt" height="200.000000pt" viewBox="0 0 200.000000 200.000000"
 preserveAspectRatio="xMidYMid meet">
<metadata>
Created by potrace 1.11, written by Peter Selinger 2001-2013
</metadata>
<g transform="translate(0.000000,200.000000) scale(0.100000,-0.100000)"
fill="#000000" stroke="none">
<path d="M1288 1886 c-83 -30 -187 -105 -213 -155 -7 -15 -13 -53 -12 -86 1
-37 -6 -78 -17 -107 -13 -34 -17 -60 -12 -90 4 -24 8 -67 9 -96 2 -29 9 -58
15 -64 22 -22 13 -39 -31 -58 -37 -16 -89 -65 -157 -146 -32 -37 -90 -130 -90
-142 0 -38 -34 -74 -103 -108 -39 -20 -85 -47 -100 -60 -37 -31 -46 -30 -91
11 -23 21 -49 35 -65 35 -26 0 -47 27 -133 178 -35 61 -46 74 -66 70 -24 -5
-22 -36 5 -87 40 -76 29 -91 -50 -65 -28 9 -66 27 -84 40 -17 13 -36 24 -42
24 -17 0 -13 -31 6 -53 17 -19 17 -20 -5 -14 -28 7 -38 -12 -23 -41 9 -17 8
-19 -8 -15 -31 8 -20 -27 15 -51 25 -16 32 -26 28 -42 -5 -17 2 -24 35 -38 23
-9 53 -16 67 -16 14 0 38 -7 54 -15 17 -9 32 -15 35 -15 3 0 10 0 16 0 5 0 21
-24 34 -53 27 -61 65 -99 118 -118 20 -7 55 -30 77 -51 40 -38 40 -39 71 -22
17 8 41 13 52 10 11 -3 32 1 46 9 14 8 70 26 124 39 109 28 150 49 196 102 30
34 31 34 31 10 0 -14 5 -37 11 -53 21 -54 34 -273 23 -395 l-5 -58 421 0 c231
0 420 3 420 6 0 7 -39 103 -51 126 -7 14 -5 18 7 18 22 0 97 55 125 93 23 30
24 39 23 168 -1 128 -3 139 -26 170 -44 61 -58 102 -95 269 -15 72 -58 166
-104 229 -24 34 -49 51 -124 86 -75 35 -95 48 -95 64 0 14 -6 21 -19 21 -11 0
-23 5 -26 10 -3 6 -2 10 3 10 17 0 65 81 54 92 -6 6 -16 -1 -28 -21 -21 -35
-33 -40 -35 -13 -2 30 2 46 22 88 10 22 19 44 19 48 0 5 13 25 29 45 40 50 38
91 -3 128 -84 75 -209 163 -230 163 -6 -1 -27 -7 -48 -14z"/>
</g>
</svg>
